<svg version="1.1" id="Layer_1" xmlns="http://www.w3.org/2000/svg" x="0" y="0" viewBox="0 0 52.2 52.2" xml:space="preserve"><style type="text/css">.st0{fill:#fff}</style><g id="facebook"><path id="XMLID_1954_" class="st0" d="M26.1 1.4c13.6 0 24.7 11.1 24.7 24.7S39.7 50.8 26.1 50.8 1.4 39.7 1.4 26.1 12.5 1.4 26.1 1.4m0-1.4C11.7 0 0 11.7 0 26.1c0 14.4 11.7 26.1 26.1 26.1 14.4 0 26.1-11.7 26.1-26.1C52.2 11.7 40.5 0 26.1 0z"/><path id="XMLID_1953_" class="st0" d="M28.3 20.3V18c0-1.1.8-1.4 1.3-1.4h3.3v-5h-4.5c-5 0-6.2 3.7-6.2 6.1v2.6h-2.9v5.8h2.9v14.6H28V26.1h4.3l.2-2.3.3-3.6h-4.5z"/></g></svg>