<svg version="1.1" id="Layer_1" xmlns="http://www.w3.org/2000/svg" x="0" y="0" viewBox="0 0 52.2 52.2" xml:space="preserve"><style type="text/css">.st0{fill:#fff}</style><g id="twitter"><path id="XMLID_1938_" class="st0" d="M26.1 1.4c13.6 0 24.7 11.1 24.7 24.7S39.7 50.8 26.1 50.8 1.4 39.8 1.4 26.1c0-13.6 11.1-24.7 24.7-24.7m0-1.4C11.7 0 0 11.7 0 26.1s11.7 26.1 26.1 26.1c14.4 0 26.1-11.7 26.1-26.1S40.5 0 26.1 0z"/><path id="XMLID_1937_" class="st0" d="M40.7 18.6c-1.1.5-2.2.8-3.4.9 1.2-.7 2.2-1.9 2.6-3.3-1.2.7-2.4 1.2-3.8 1.4-1.1-1.1-2.7-1.9-4.4-1.9-3.3 0-6 2.6-6 5.9 0 .5.1.9.2 1.3-5-.2-9.4-2.6-12.4-6.2-.5.9-.8 1.9-.8 3 0 2 1.1 3.9 2.7 4.9-1 0-1.9-.3-2.7-.7v.1c0 .8.1 1.5.4 2.1.7 1.9 2.4 3.3 4.4 3.7-.5.1-1 .2-1.6.2-.4 0-.8 0-1.1-.1.8 2.3 3 4.1 5.6 4.1-2.1 1.6-4.6 2.5-7.5 2.5-.5 0-1 0-1.4-.1 2.7 1.7 5.8 2.7 9.2 2.7 9.4 0 15.1-6.5 16.7-13.2.3-1.2.4-2.4.4-3.6v-.8c1.1-.7 2.1-1.7 2.9-2.9z"/></g></svg>