<svg version="1.1" id="Layer_1" xmlns="http://www.w3.org/2000/svg" x="0" y="0" viewBox="0 0 52.2 52.2" xml:space="preserve"><style type="text/css">.st0{fill:#fff}</style><g id="youtube"><path id="XMLID_1947_" class="st0" d="M26.1 1.4c13.6 0 24.7 11.1 24.7 24.7S39.7 50.8 26.1 50.8 1.4 39.7 1.4 26.1 12.5 1.4 26.1 1.4m0-1.4C11.7 0 0 11.7 0 26.1c0 14.4 11.7 26.1 26.1 26.1 14.4 0 26.1-11.7 26.1-26.1C52.2 11.7 40.5 0 26.1 0z"/><path class="st0" d="M40.4 20.1s-.3-2.1-1.2-3c-1.1-1.2-2.4-1.2-2.9-1.3-4.1-.3-10.2-.3-10.2-.3s-6.1 0-10.2.3c-.6.1-1.8.1-2.9 1.3-.9.9-1.2 3-1.2 3s-.3 2.5-.3 4.9v2.3c0 2.5.3 4.9.3 4.9s.3 2.1 1.2 3c1.1 1.2 2.6 1.2 3.2 1.3 2.3.2 9.9.3 9.9.3s6.1 0 10.2-.3c.6-.1 1.8-.1 2.9-1.3.9-.9 1.2-3 1.2-3s.3-2.5.3-4.9V25c0-2.4-.3-4.9-.3-4.9zM31 25.9l-7.9 4.3v-8.6l3.6 1.9 4.3 2.4z"/></g></svg>